<?xml version="1.0" encoding="UTF-8"?>
<svg version="1.1" xmlns="http://www.w3.org/2000/svg" width="1575" height="558">
<path d="M0 0 C1.5418254 -0.00761181 1.5418254 -0.00761181 3.11479878 -0.0153774 C4.25271013 -0.01587516 5.39062148 -0.01637292 6.56301498 -0.01688576 C7.76513839 -0.02126801 8.96726179 -0.02565027 10.20581317 -0.03016531 C13.5531868 -0.04124732 16.90051357 -0.04778314 20.24789882 -0.05234647 C23.85402039 -0.05829618 27.46012467 -0.06990758 31.06623459 -0.08063698 C39.78036595 -0.10517529 48.49450305 -0.11979013 57.20865834 -0.13269705 C59.66908278 -0.1364079 62.12950666 -0.14038122 64.58993053 -0.14444971 C79.8621483 -0.1696849 95.13436694 -0.19174247 110.40660095 -0.20417786 C113.94520954 -0.20710765 117.48381809 -0.2100693 121.02242661 -0.21308327 C121.9019531 -0.21382932 122.78147959 -0.21457537 123.6876584 -0.21534403 C137.93899642 -0.22800064 152.19020977 -0.26122694 166.44148949 -0.3028851 C181.06620311 -0.34528513 195.69085287 -0.36887064 210.31562781 -0.37409842 C218.52966791 -0.37751472 226.74351316 -0.3892955 234.95749283 -0.42220116 C241.95227175 -0.45017636 248.9468159 -0.46121222 255.94164643 -0.4500057 C259.51111095 -0.44481245 263.08008366 -0.4477479 266.64947701 -0.47247124 C270.51856223 -0.49904687 274.38697393 -0.48692579 278.25613022 -0.47098732 C279.38511868 -0.48486941 280.51410714 -0.49875149 281.67730737 -0.51305425 C290.16154591 -0.42666919 290.16154591 -0.42666919 293.8605547 2.0700798 C297.08169419 6.35974009 296.99920865 9.57495144 296.91871262 14.81596947 C296.93169418 16.28716476 296.93169418 16.28716476 296.944938 17.78808117 C296.96654772 21.07813755 296.94522268 24.36650693 296.92403793 27.65654564 C296.93053019 30.01368074 296.93959052 32.37080997 296.95103073 34.72792625 C296.97414021 41.13292489 296.95937541 47.53732875 296.93656135 53.94230843 C296.92362979 57.9416754 296.92368131 61.94100695 296.92749596 65.94038963 C296.92812663 66.60435527 296.92875731 67.2683209 296.92940709 67.9524067 C296.93075315 69.30125041 296.93213272 70.65009409 296.93354545 71.99893773 C296.94548182 84.64642304 296.92141744 97.29364138 296.88452736 109.94106591 C296.85363437 120.79260946 296.8512633 131.64384564 296.870327 142.49541283 C296.89244076 155.0976679 296.89858187 167.69975068 296.87800437 180.30201435 C296.87584144 181.64588926 296.87369234 182.98976419 296.87155724 184.33363914 C296.87049087 184.99484711 296.86942451 185.65605507 296.86832583 186.33729964 C296.86185697 190.99630625 296.86682779 195.6551732 296.87558174 200.31416893 C296.88611829 206.58518215 296.87204707 212.85566702 296.83883858 219.12659645 C296.83061752 221.43044282 296.83093148 223.73433748 296.84031677 226.0381794 C296.85170715 229.1787345 296.83242113 232.3176363 296.80518723 235.45805931 C296.81565871 236.3739121 296.8261302 237.28976488 296.83691901 238.23337078 C296.7690679 242.42150505 296.50134534 244.60825015 294.2046442 248.20325851 C290.00045936 250.8765858 286.75484828 250.8269995 281.86422348 250.75606346 C280.92426214 250.76230244 279.9843008 250.76854142 279.01585579 250.77496946 C275.86413539 250.78989909 272.71365237 250.76923443 269.56197739 250.7488308 C267.30336696 250.75237134 265.04475908 250.75814817 262.78615952 250.76599693 C257.92153731 250.77818478 253.05726564 250.77469813 248.19265366 250.75916481 C240.50364888 250.73488656 232.81495229 250.74632722 225.12594223 250.76283836 C214.34871707 250.78233964 203.57163016 250.78657712 192.79439926 250.77666283 C192.11069692 250.776039 191.42699459 250.77541518 190.722574 250.77477245 C189.33881898 250.77350114 187.95506398 250.7722269 186.57130897 250.77094974 C185.5422477 250.77000117 185.5422477 250.77000117 184.49239731 250.76903343 C183.80575693 250.76839529 183.11911656 250.76775714 182.4116689 250.76709966 C174.78533994 250.76029378 167.15901226 250.75830269 159.53268051 250.75810814 C158.84981216 250.75808531 158.16694381 250.75806248 157.46338248 250.75803895 C146.07830688 250.75810819 134.69327186 250.77019295 123.30821037 250.78906763 C115.66165701 250.80059875 108.01532685 250.7961193 100.36878586 250.77904725 C95.61581608 250.77116208 90.8629116 250.7753928 86.10994339 250.78275681 C83.90283145 250.78356859 81.69571072 250.77919793 79.48862076 250.76931381 C76.47984276 250.75648946 73.47163225 250.76194882 70.46285629 250.7719326 C69.58591299 250.76367443 68.70896969 250.75541625 67.80545235 250.74690783 C64.30191656 250.77453993 61.47863441 251.03789736 58.12102318 252.09407711 C55.01606412 255.33458324 55.483261 258.94289495 55.54449081 263.18909264 C55.53513235 264.59541302 55.53513235 264.59541302 55.52558482 266.03014392 C55.51061004 269.18573872 55.5313504 272.34010679 55.55172348 275.49565697 C55.54818426 277.75234988 55.54240897 280.00904024 55.53455734 282.26572227 C55.5223543 287.13256001 55.52587402 291.99904762 55.54138947 296.86587524 C55.56564125 304.55919525 55.55423731 312.25220664 55.53771591 319.94553185 C55.5182023 330.73051351 55.51398262 341.51535703 55.52389145 352.30034447 C55.52451527 352.9849155 55.5251391 353.66948653 55.52578183 354.37480213 C55.52705311 355.76026434 55.52832735 357.14572654 55.52960453 358.53118874 C55.53055311 359.56145726 55.53055311 359.56145726 55.53152084 360.61253929 C55.53215899 361.29996006 55.53279714 361.98738083 55.53345462 362.69563254 C55.5402557 370.32461153 55.5422515 377.95358924 55.54244614 385.58257103 C55.54246897 386.26539942 55.5424918 386.94822782 55.54251532 387.65174798 C55.54244607 399.04015511 55.53035412 410.42852171 55.51148665 421.81691474 C55.49995889 429.46653397 55.50443099 437.11593005 55.52150702 444.7655369 C55.52939785 449.52401898 55.52515769 454.28243592 55.51779747 459.04091644 C55.51698633 461.24921921 55.52134842 463.45753078 55.53124046 465.66581154 C55.54408454 468.67872509 55.53859514 471.69107346 55.52862167 474.70398521 C55.53687985 475.57937991 55.54513802 476.45477461 55.55364645 477.35669643 C55.51443837 482.34781231 54.9857275 485.83861175 52.16353989 490.13701439 C48.84880084 492.34684042 47.8054397 492.39270287 43.94527817 492.41167259 C42.88052261 492.42120461 41.81576706 492.43073662 40.71874619 492.44055748 C39.56873123 492.43964607 38.41871628 492.43873466 37.23385239 492.43779564 C36.05136917 492.44208076 34.86888596 492.44636589 33.65056992 492.45078087 C31.14725002 492.45652825 28.64391341 492.45702145 26.14059067 492.45268822 C22.31071041 492.44953266 18.4816056 492.47296828 14.65182114 492.49834251 C12.22083253 492.50061589 9.78984184 492.50131883 7.35885239 492.50029564 C6.21288589 492.50950539 5.0669194 492.51871513 3.88622665 492.52820396 C2.27963684 492.51886078 2.27963684 492.51886078 0.64059067 492.50932884 C-0.29856186 492.50995827 -1.23771439 492.51058769 -2.20532608 492.51123619 C-5.36849545 492.06134389 -7.25944783 490.99617479 -9.83646011 489.13701439 C-11.3845886 486.04075742 -10.97725522 482.77268815 -10.97068119 479.37451935 C-10.97303342 478.55961393 -10.97538565 477.74470851 -10.97780916 476.90510899 C-10.98452319 474.14500551 -10.98404022 471.38494885 -10.98363113 468.62483788 C-10.98692825 466.63780802 -10.99065349 464.65077885 -10.99477261 462.66375053 C-11.00481781 457.1804321 -11.00851344 451.69712462 -11.01116192 446.21379828 C-11.01505745 440.30912988 -11.02463621 434.40447021 -11.03337479 428.49980736 C-11.05222382 414.90446054 -11.06239775 401.30911219 -11.07083547 387.71375572 C-11.07503944 380.99895002 -11.08026172 374.28414523 -11.08552 367.56934029 C-11.10341036 344.59456622 -11.11840796 321.6197919 -11.12584019 298.6450119 C-11.12631495 297.20227237 -11.12679084 295.75953284 -11.12726785 294.31679332 C-11.12750422 293.60130873 -11.1277406 292.88582415 -11.12798414 292.14865821 C-11.12918537 288.52352042 -11.13040081 284.89838264 -11.13162613 281.27324486 C-11.13186628 280.55381949 -11.13210643 279.83439412 -11.13235386 279.09316798 C-11.1402505 255.75659674 -11.16368975 232.42007626 -11.19618207 209.08352719 C-11.23045346 184.42432032 -11.25018877 159.76514317 -11.25348443 135.10591209 C-11.25390199 132.40073258 -11.25438155 129.6955531 -11.25490761 126.99037361 C-11.2550308 126.32425777 -11.25515399 125.65814193 -11.25528092 124.97184077 C-11.25747142 114.90228278 -11.27078834 104.83277779 -11.2899456 94.76323891 C-11.31158798 83.31485245 -11.31973496 71.86655873 -11.30997882 60.41815414 C-11.30541548 54.57265303 -11.30743789 48.72734353 -11.32674026 42.88186836 C-11.34423995 37.5363738 -11.34348247 32.19121249 -11.32784297 26.84571503 C-11.32544671 24.90627775 -11.32989368 22.96681817 -11.34167162 21.02741517 C-11.35663733 18.4015953 -11.34722548 15.77697988 -11.33144474 13.15119171 C-11.34166695 12.38897696 -11.35188915 11.62676221 -11.36242113 10.84145004 C-11.31623873 7.34790439 -11.11283664 5.4906005 -8.93052357 2.69862831 C-5.72026533 0.3046302 -3.95620274 0.01033539 0 0 Z " fill="#FBFDFF" transform="translate(10.83646011352539,2.862985610961914)"/>
<path d="M0 0 C0.86797767 -0.00367669 1.73595535 -0.00735338 2.63023537 -0.01114148 C5.55592025 -0.02220668 8.48156964 -0.02602694 11.40727234 -0.02983093 C13.49795139 -0.03609339 15.58862933 -0.04273999 17.67930603 -0.04974365 C23.37148667 -0.06717241 29.06365889 -0.07771029 34.75585961 -0.08594918 C38.30946198 -0.09109481 41.86306171 -0.0971707 45.41666222 -0.10346031 C56.52733722 -0.12251665 67.63800555 -0.13674748 78.74869376 -0.14507228 C91.58866661 -0.15485074 104.42846734 -0.18118441 117.26837951 -0.22157317 C127.18349174 -0.2516953 137.09855452 -0.2665374 147.01371163 -0.26985329 C152.94007918 -0.27220803 158.86626295 -0.28122356 164.79258156 -0.30631447 C170.36660225 -0.32953221 175.94031733 -0.33385377 181.51437378 -0.32355309 C183.56184592 -0.3230561 185.60933279 -0.32942428 187.65675926 -0.34310913 C190.44911403 -0.3607309 193.24036044 -0.35376991 196.03271484 -0.34057617 C196.84555838 -0.35154542 197.65840192 -0.36251466 198.49587709 -0.37381631 C202.25215735 -0.33087922 204.48552842 0.01028756 207.70970345 2.00453663 C210.32741322 4.81296501 210.33449338 6.33299302 210.3379364 10.1374054 C210.35046951 11.34545837 210.36300262 12.55351135 210.37591553 13.798172 C210.36265732 15.09927917 210.34939911 16.40038635 210.33573914 17.74092102 C210.33656813 19.09325857 210.33902868 20.44559602 210.3430481 21.79792786 C210.34590406 24.62933253 210.3312269 27.45994525 210.30375671 30.29121399 C210.26967226 33.91647765 210.2756929 37.54032559 210.29441929 41.16565704 C210.30499945 43.95732883 210.29604265 46.74867244 210.28103447 49.54031372 C210.27334692 51.52558574 210.28070111 53.51089756 210.28826904 55.49617004 C210.27243271 56.70422302 210.25659637 57.912276 210.24028015 59.15693665 C210.23098228 60.75100342 210.23098228 60.75100342 210.22149658 62.37727356 C209.58201598 65.81893013 208.39415246 66.97832284 205.70683289 69.14717102 C203.03941892 70.480878 201.00788769 70.27797015 198.01971436 70.28520203 C196.80966232 70.29065536 195.59961029 70.2961087 194.35289001 70.30172729 C193.00480657 70.30284712 191.65672307 70.30389764 190.30863953 70.30488586 C188.89450929 70.30955304 187.48038056 70.31469644 186.06625366 70.32028198 C183.01712243 70.33157078 179.96800102 70.34000111 176.91885567 70.34640121 C172.09972602 70.35706725 167.28066691 70.37730755 162.46157837 70.39952087 C148.75666019 70.46149468 135.05174615 70.51549094 121.34672546 70.54853821 C113.78058312 70.56686294 106.21455884 70.5957703 98.64850324 70.63654292 C94.64267381 70.65764663 90.63699338 70.67307493 86.63110542 70.67535019 C82.86439434 70.67749212 79.09799365 70.6933143 75.33137703 70.71973991 C73.94746612 70.72695145 72.56351768 70.72902492 71.17959213 70.72563744 C69.29335141 70.72175725 67.40710089 70.73792176 65.52093506 70.75517273 C64.46439256 70.75848288 63.40785006 70.76179302 62.31929111 70.76520348 C59.70218192 70.94616713 59.70218192 70.94616713 57.9059515 72.42167091 C55.39517246 76.03461583 55.58072627 79.70183092 55.57553101 83.99214172 C55.57152283 85.18666962 55.56751465 86.38119751 55.56338501 87.61192322 C55.56391373 88.91906281 55.56444244 90.22620239 55.56498718 91.57295227 C55.56195449 92.96605031 55.55843273 94.35914737 55.55445862 95.75224304 C55.5465791 98.75004689 55.54142834 101.74783889 55.53816795 104.74565125 C55.53225293 109.4854038 55.51570906 114.22508147 55.49682617 118.96479797 C55.49048918 120.58789058 55.48416355 122.21098323 55.47784901 123.83407593 C55.4746832 124.64679522 55.47151738 125.4595145 55.46825564 126.29686165 C55.42617984 137.32995948 55.39318778 148.36302168 55.38090515 159.39619446 C55.37253198 166.84116232 55.35007215 174.28594402 55.31154948 181.73081875 C55.29176936 185.67018461 55.27939078 189.60927208 55.28438377 193.5486908 C55.28902109 197.2523085 55.27527603 200.95539772 55.24737167 204.65890884 C55.23714075 206.66672193 55.24672645 208.67460527 55.25686646 210.68241882 C55.23816498 212.47421066 55.23816498 212.47421066 55.21908569 214.30220032 C55.21669734 215.3404747 55.21430899 216.37874908 55.21184826 217.44848633 C54.57683484 220.84185032 53.35171261 222.00245265 50.70683289 224.14717102 C48.12149285 225.43984104 46.2218476 225.2954739 43.32670593 225.32417297 C41.63936592 225.34342583 41.63936592 225.34342583 39.91793823 225.36306763 C38.69714066 225.37045456 37.47634308 225.37784149 36.21855164 225.38545227 C34.34282219 225.39755989 34.34282219 225.39755989 32.42919922 225.40991211 C29.7786233 225.42376297 27.1281722 225.43477638 24.47758484 225.44233704 C21.0879254 225.45339314 17.69892396 225.48778322 14.30949688 225.52750874 C11.07091378 225.55999408 7.83227283 225.56445565 4.59355164 225.57295227 C2.77146431 225.5992144 2.77146431 225.5992144 0.91256714 225.62600708 C-0.22178268 225.62308151 -1.35613251 225.62015594 -2.52485657 225.61714172 C-3.52031998 225.62300797 -4.51578339 225.62887421 -5.54141235 225.63491821 C-9.05619014 225.01192556 -10.73421942 223.58252375 -13.29316711 221.14717102 C-14.90567217 217.9221609 -14.44113525 214.39735088 -14.44033813 210.85400391 C-14.44401482 209.98602623 -14.44769151 209.11804856 -14.45147961 208.22376853 C-14.46254481 205.29808366 -14.46636507 202.37243426 -14.47016907 199.44673157 C-14.47643152 197.35605251 -14.48307812 195.26537458 -14.49008179 193.17469788 C-14.50751055 187.48251724 -14.51804842 181.79034501 -14.52628732 176.09814429 C-14.53143294 172.54454193 -14.53750883 168.9909422 -14.54379845 165.43734169 C-14.56285478 154.32666669 -14.57708561 143.21599835 -14.58541042 132.10531014 C-14.59518888 119.2653373 -14.62152254 106.42553657 -14.66191131 93.5856244 C-14.69203344 83.67051217 -14.70687554 73.75544939 -14.71019143 63.84029227 C-14.71254616 57.91392473 -14.72156169 51.98774096 -14.7466526 46.06142235 C-14.76987035 40.48740165 -14.77419191 34.91368657 -14.76389122 29.33963013 C-14.76339423 27.29215798 -14.76976241 25.24467112 -14.78344727 23.19724464 C-14.80106903 20.40488988 -14.79410805 17.61364346 -14.78091431 14.82128906 C-14.79736818 13.60202375 -14.79736818 13.60202375 -14.81415445 12.35812682 C-14.77092286 8.57608357 -14.44597858 6.38612446 -12.38768291 3.16753864 C-8.56606109 -0.51879354 -5.0491808 -0.00113586 0 0 Z " fill="#FBFDFF" transform="translate(97.29316711425781,269.8528289794922)"/>
<path d="M0 0 C0.79517532 0.00247742 1.59035065 0.00495483 2.40962219 0.00750732 C3.24746246 0.00239639 4.08530273 -0.00271454 4.9485321 -0.00798035 C7.73584542 -0.02194355 10.52291266 -0.02091163 13.31025696 -0.01861572 C15.25728446 -0.02250491 17.20431111 -0.02684004 19.15133667 -0.03160095 C23.24966667 -0.03908183 27.34791062 -0.03876272 31.44624329 -0.0335083 C36.64590794 -0.02777426 41.84520929 -0.04448653 47.04481411 -0.06785297 C51.07828768 -0.08275874 55.11167777 -0.08343837 59.14517403 -0.08034325 C61.05811838 -0.08085016 62.97106823 -0.08596679 64.88398552 -0.09615517 C90.27674817 -0.21457877 115.86173939 2.82518033 135.22431946 21.06732178 C152.00186665 38.84838581 156.32048532 60.21786378 155.68916321 83.83294678 C154.70877695 104.97558921 145.71521967 121.98689368 130.32588196 136.10638428 C114.8533995 148.72954448 95.22011939 152.46727566 75.81806946 152.37982178 C74.03504677 152.37769936 74.03504677 152.37769936 72.21600342 152.37553406 C68.43619727 152.36995667 64.65645132 152.35740828 60.87666321 152.34466553 C58.30700261 152.33964761 55.73734108 152.33508521 53.16767883 152.33099365 C46.88315324 152.31999464 40.59866253 152.30327903 34.31416321 152.28216553 C34.32082504 153.21510941 34.32748688 154.14805328 34.33435059 155.10926819 C34.39511925 163.89383423 34.44011536 172.67835772 34.46959972 181.46308613 C34.48526745 185.97960979 34.50652578 190.49596401 34.54048157 195.01239014 C34.57303576 199.3695715 34.59100789 203.72658971 34.59879494 208.08388329 C34.60434556 209.74770871 34.61518439 211.41152503 34.63135338 213.07528114 C34.65307572 215.40265956 34.65613238 217.72936054 34.65473938 220.05682373 C34.66552521 220.74734329 34.67631104 221.43786285 34.68742371 222.14930725 C34.66925413 224.94782116 34.60315617 226.85007451 33.02445984 229.21047974 C29.98734543 231.11356034 26.47198805 230.68607391 22.99775696 230.64544678 C21.77935875 230.64619453 21.77935875 230.64619453 20.53634644 230.6469574 C18.82074027 230.64461836 17.10513057 230.6348998 15.38960266 230.61834717 C12.75802585 230.59472265 10.12745994 230.59779115 7.49580383 230.60443115 C5.82978215 230.59885542 4.16376474 230.59174621 2.49775696 230.58294678 C1.70816086 230.58385818 0.91856476 230.58476959 0.1050415 230.58570862 C-5.45479887 230.51320345 -5.45479887 230.51320345 -7.68583679 228.28216553 C-7.88386227 225.31587428 -7.95498411 222.44281457 -7.93980408 219.47528076 C-7.94292406 218.55210021 -7.94604404 217.62891966 -7.94925857 216.67776394 C-7.95727491 213.56536527 -7.9509008 210.45315961 -7.94462585 207.34075928 C-7.9473341 205.11713547 -7.95089409 202.89351256 -7.95524597 200.66989136 C-7.96439201 194.61632732 -7.96081661 188.56283118 -7.9544878 182.5092659 C-7.94943924 176.18673768 -7.95411605 169.86421545 -7.95726013 163.54168701 C-7.96113676 152.24125475 -7.95490482 140.9408571 -7.94474146 129.64043176 C-7.93580553 119.38720526 -7.93735745 109.13402403 -7.94657898 98.88079834 C-7.95727364 86.98400845 -7.96127051 75.08724609 -7.95535445 63.19044971 C-7.95222953 56.8892133 -7.95183969 50.58800811 -7.95842743 44.28677368 C-7.96418651 38.36399084 -7.96023045 32.44129388 -7.94863892 26.51852036 C-7.94598461 24.33918272 -7.94677046 22.15983791 -7.95116425 19.98050308 C-7.95659083 17.01658647 -7.94982087 14.05294889 -7.93980408 11.08905029 C-7.94426552 10.2168859 -7.94872696 9.34472151 -7.9533236 8.44612789 C-7.90752976 1.50968895 -7.03608972 0.06883833 0 0 Z M34.31416321 38.28216553 C34.31416321 63.69216553 34.31416321 89.10216553 34.31416321 115.28216553 C41.96603821 115.36466553 49.61791321 115.44716553 57.50166321 115.53216553 C59.88924866 115.56858154 62.27683411 115.60499756 64.73677063 115.64251709 C78.83305794 115.76833668 92.5921715 115.80787363 103.31416321 105.28216553 C110.99403211 97.45908229 113.5002752 87.40127033 113.75166321 76.65716553 C113.38972994 65.2971309 110.56698525 54.92043551 102.60322571 46.46575928 C90.09597403 35.93750312 73.2277918 37.80490237 58.00166321 38.03216553 C50.18478821 38.11466553 42.36791321 38.19716553 34.31416321 38.28216553 Z " fill="#FBFDFF" transform="translate(1143.6858367919922,268.71783447265625)"/>
<path d="M0 0 C1.58356041 -0.0129007 1.58356041 -0.0129007 3.19911194 -0.02606201 C4.36225922 -0.03032196 5.52540649 -0.03458191 6.72380066 -0.03897095 C7.94501114 -0.04714844 9.16622162 -0.05532593 10.42443848 -0.06375122 C14.48019582 -0.08863726 18.53591584 -0.1052787 22.59172058 -0.11953735 C23.98770848 -0.12489701 25.38369631 -0.13027451 26.77968407 -0.13566971 C32.58643734 -0.15729837 38.39318783 -0.17603523 44.1999712 -0.1872921 C52.52289002 -0.20353262 60.84534207 -0.23671224 69.16808492 -0.29369295 C75.01953509 -0.33238889 80.8708604 -0.35192432 86.72243518 -0.35721266 C90.21766331 -0.36086667 93.71239363 -0.37289164 97.20748329 -0.4053154 C101.10759313 -0.44097784 105.00711685 -0.43702599 108.90739441 -0.42959595 C110.64300629 -0.45420395 110.64300629 -0.45420395 112.41368103 -0.47930908 C117.03603957 -0.44317657 120.13672242 -0.32713986 124.22465515 1.92547607 C127.00953894 6.96223446 126.71390674 11.72518414 126.67253113 17.3921814 C126.68289902 18.6333371 126.69326691 19.8744928 126.70394897 21.15325928 C126.72639023 24.5504087 126.72630521 27.94603263 126.71424842 31.34313583 C126.70711023 34.18120896 126.71562086 37.01914668 126.72415382 39.85720921 C126.74409662 46.55291023 126.73854721 53.24825412 126.71647644 59.94393921 C126.69410642 66.84764155 126.71171989 73.75040912 126.74952573 80.65402317 C126.7807691 86.58628488 126.78867314 92.51825736 126.77757198 98.45059109 C126.77108786 101.99159409 126.77307199 105.53205759 126.79689598 109.07299805 C126.82210668 113.02090992 126.79852103 116.96771068 126.77018738 120.9156189 C126.79076202 122.67221329 126.79076202 122.67221329 126.81175232 124.46429443 C126.74011752 129.44861237 126.64961874 132.25561826 123.7111969 136.38034058 C119.00978102 139.35799749 113.39075753 138.83211005 108.02507019 138.76913452 C106.22163902 138.77745804 106.22163902 138.77745804 104.3817749 138.78594971 C101.09639693 138.7957157 97.81205626 138.78318117 94.52677608 138.75966454 C91.08314177 138.73950456 87.63954064 138.74543768 84.19586182 138.74777222 C78.41483239 138.74771871 72.63413049 138.72799783 66.85319519 138.69589233 C60.17521049 138.65898457 53.49765436 138.65021977 46.81958097 138.65718985 C40.38666637 138.66350032 33.95389828 138.65273168 27.52101326 138.63322449 C24.78706838 138.62506243 22.05319851 138.62233872 19.31924248 138.62391663 C15.50089422 138.62212108 11.68315674 138.60075899 7.86491394 138.57382202 C6.73282501 138.57675262 5.60073608 138.57968323 4.43434143 138.58270264 C2.87200523 138.56567795 2.87200523 138.56567795 1.27810669 138.54830933 C0.37608993 138.54458061 -0.52592684 138.5408519 -1.45527744 138.53701019 C-4.57890443 138.06494818 -6.44255553 136.999302 -8.99031067 135.15390015 C-11.1876308 131.85791995 -11.24378635 130.87202774 -11.25773621 127.04333496 C-11.26626617 125.98625336 -11.27479614 124.92917175 -11.28358459 123.84005737 C-11.28267822 122.68050537 -11.28177185 121.52095337 -11.28083801 120.32626343 C-11.28755524 119.10490692 -11.29427246 117.88355042 -11.30119324 116.62518311 C-11.31695374 113.27381633 -11.3235493 109.92269733 -11.32482481 106.57131052 C-11.32672401 103.7731407 -11.33408183 100.97499466 -11.341169 98.17683399 C-11.35745699 91.5742878 -11.36233761 84.97179615 -11.36091614 78.36923218 C-11.3597148 71.56007436 -11.38081385 64.75123356 -11.41240346 57.94215596 C-11.43856333 52.0949168 -11.44928355 46.24778119 -11.44800532 40.40048397 C-11.44749556 36.90872296 -11.45318577 33.41724361 -11.47436142 29.92554092 C-11.49733881 26.03034352 -11.4882246 22.13558008 -11.47615051 18.24032593 C-11.48738953 17.08482239 -11.49862854 15.92931885 -11.51020813 14.73880005 C-11.44850108 6.92170942 -11.44850108 6.92170942 -9.08494568 2.96099854 C-5.89870109 0.21213898 -4.12958946 0.02498976 0 0 Z " fill="#FAFDFF" transform="translate(180.9903106689453,356.8460998535156)"/>
<path d="M0 0 C1.134944 -0.005476 1.134944 -0.005476 2.29281616 -0.01106262 C4.80188272 -0.01918515 7.31030603 -0.0055291 9.81933594 0.0090332 C11.57273356 0.00955225 13.32613176 0.00903281 15.07952881 0.00752258 C18.76502109 0.00761242 22.45029521 0.018054 26.13574219 0.03613281 C30.81894408 0.05862009 35.50182163 0.05940181 40.18506241 0.05261517 C43.81433906 0.04923966 47.44354431 0.05597512 51.07280731 0.0657444 C52.79646173 0.06955054 54.52012417 0.07076403 56.24378204 0.06915855 C79.36878414 0.06556289 101.39290626 2.68348863 119.55371094 18.37231445 C120.23304688 18.9446582 120.91238281 19.51700195 121.61230469 20.10668945 C132.97259742 30.47046528 139.82311685 46.59388207 140.69458008 61.83618164 C141.42980729 83.04168224 139.28808061 102.28211139 124.99121094 119.18481445 C118.85034555 125.55207119 110.37010502 132.44410066 101.55371094 134.37231445 C109.02744405 148.36326587 116.50929922 162.34854825 124.12402344 176.26342773 C126.73060177 181.02726494 129.32643159 185.79651854 131.90527344 190.57543945 C132.46819092 191.61812988 133.0311084 192.66082031 133.61108398 193.73510742 C134.7257877 195.80116003 135.83926352 197.86787568 136.95141602 199.93530273 C139.28641288 204.26005789 141.6350594 208.56401444 144.15136719 212.78637695 C144.53131836 213.42639648 144.91126953 214.06641602 145.30273438 214.72583008 C146.27618949 216.34736137 147.2675803 217.95809036 148.26074219 219.56762695 C149.74061434 222.77774237 149.964677 224.87662722 149.55371094 228.37231445 C146.29912224 231.62690315 142.35896257 230.66835401 137.92675781 230.69458008 C136.66927734 230.69135742 135.41179687 230.68813477 134.11621094 230.68481445 C132.86259766 230.70092773 131.60898437 230.71704102 130.31738281 230.73364258 C129.11791016 230.73428711 127.9184375 230.73493164 126.68261719 230.7355957 C125.57990479 230.73857666 124.47719238 230.74155762 123.34106445 230.74462891 C120.55371094 230.37231445 120.55371094 230.37231445 118.89501953 229.25708008 C116.99424477 226.58616978 115.46794646 223.75739843 113.96386719 220.8527832 C113.6234993 220.20672623 113.28313141 219.56066925 112.93244934 218.89503479 C112.20232005 217.50789367 111.4746504 216.11945564 110.74920654 214.7298584 C108.83419596 211.06200911 106.90140904 207.4035281 104.97167969 203.7434082 C104.58872742 203.01574249 104.20577515 202.28807678 103.81121826 201.5383606 C100.73776208 195.70309124 97.60397483 189.90285226 94.42871094 184.12231445 C91.10549963 178.06730586 87.80972178 171.99884208 84.55371094 165.9074707 C84.21123322 165.26685699 83.86875549 164.62624329 83.51589966 163.96621704 C81.82532136 160.80245253 80.13718376 157.63740737 78.45166016 154.47094727 C77.84338379 153.33109375 77.23510742 152.19124023 76.60839844 151.0168457 C76.06683105 149.99953369 75.52526367 148.98222168 74.96728516 147.93408203 C73.53388725 145.25192208 73.53388725 145.25192208 71.55371094 142.37231445 C69.21628868 141.89560595 69.21628868 141.89560595 66.46142578 141.93994141 C65.40047699 141.92014725 64.3395282 141.90035309 63.24642944 141.87995911 C62.09744171 141.87356918 60.94845398 141.86717926 59.76464844 141.8605957 C58.59108795 141.8426445 57.41752747 141.8246933 56.20840454 141.80619812 C52.44854358 141.75188023 48.68881109 141.71812998 44.92871094 141.68481445 C42.38442214 141.65166042 39.84015034 141.61717258 37.29589844 141.58129883 C31.04861781 141.49614148 24.80132098 141.4278829 18.55371094 141.37231445 C18.56037277 142.44306717 18.56703461 143.51381989 18.57389832 144.61701965 C18.63465318 154.6966119 18.6796565 164.77616711 18.70914745 174.85590076 C18.72481863 180.03828868 18.74608341 185.22052904 18.7800293 190.40283203 C18.81257093 195.40191286 18.83055301 200.40085158 18.83834267 205.40003014 C18.84389553 207.30946783 18.85473861 209.21889755 18.87090111 211.12827492 C18.8926064 213.79809137 18.89568077 216.46731687 18.89428711 219.13720703 C18.90507294 219.93058472 18.91585876 220.7239624 18.92697144 221.54138184 C18.89675211 226.87404172 18.89675211 226.87404172 17.18269348 229.36373901 C14.85203266 230.80675464 13.06262662 230.74435036 10.33496094 230.7355957 C8.81322266 230.73462891 8.81322266 230.73462891 7.26074219 230.73364258 C6.20242188 230.7175293 5.14410156 230.70141602 4.05371094 230.68481445 C2.99539063 230.68803711 1.93707031 230.69125977 0.84667969 230.69458008 C-7.04562444 230.6394242 -7.04562444 230.6394242 -10.44628906 228.37231445 C-10.74701673 225.38384514 -10.85031533 222.60167547 -10.82723999 219.61012268 C-10.83191996 218.69173125 -10.83659993 217.77333981 -10.84142172 216.82711834 C-10.85344647 213.73079271 -10.84388533 210.6349036 -10.83447266 207.53857422 C-10.83853506 205.32642355 -10.84387507 203.1142749 -10.85040283 200.90213013 C-10.86412237 194.87946167 -10.85875846 188.85694675 -10.84926558 182.83427548 C-10.841692 176.54290926 -10.84870825 170.25155654 -10.85342407 163.96018982 C-10.85923921 152.71430564 -10.84989106 141.468485 -10.83464606 130.22261577 C-10.82124541 120.02142263 -10.82356727 109.82033191 -10.83740234 99.61914062 C-10.8534495 87.78129959 -10.85943664 75.9435082 -10.85056555 64.10565418 C-10.8458801 57.83623001 -10.84528802 51.56687642 -10.85517502 45.29745674 C-10.86382006 39.40335799 -10.85786784 33.50945324 -10.84049225 27.61537552 C-10.83651404 25.44774765 -10.83768411 23.28010355 -10.84428024 21.11248207 C-10.85243326 18.1619284 -10.84224983 15.2120031 -10.82723999 12.26148987 C-10.83393216 11.39612927 -10.84062432 10.53076866 -10.84751928 9.63918501 C-10.78978812 3.82046792 -10.78978812 3.82046792 -9.12875235 1.65336174 C-6.38732062 -0.43399655 -3.30676526 -0.03541513 0 0 Z M18.55371094 27.37231445 C18.55371094 55.75231445 18.55371094 84.13231445 18.55371094 113.37231445 C32.75402344 113.49606445 32.75402344 113.49606445 47.24121094 113.62231445 C50.20307373 113.65873047 53.16493652 113.69514648 56.21655273 113.73266602 C58.60367105 113.74436486 60.99079744 113.75455384 63.37792969 113.76293945 C64.58533813 113.78340332 65.79274658 113.80386719 67.03674316 113.82495117 C79.99422315 113.83018705 91.45325814 110.6471332 101.24121094 101.99731445 C109.79265639 92.29026826 112.96274869 82.25859507 112.76464844 69.2434082 C111.83240324 56.55451521 107.97601831 45.64835931 98.50683594 36.8996582 C83.17963085 24.91378382 62.38235805 26.99515401 44.11621094 27.18481445 C35.68058594 27.24668945 27.24496094 27.30856445 18.55371094 27.37231445 Z " fill="#FBFDFF" transform="translate(386.4462890625,268.627685546875)"/>
<path d="M0 0 C22.78164346 -0.51432661 43.36733459 5.94875266 60.046875 21.79296875 C79.20405572 41.44474105 85.72067217 66.4891896 85.54882812 93.37084961 C85.10443684 117.93902173 77.27333771 142.70557731 59.31640625 160.12109375 C40.0799297 177.2172839 19.079031 181.41290151 -5.89355469 180.30566406 C-24.8455114 179.05192944 -41.31666382 170.2618489 -54.68359375 157.12109375 C-55.31136719 156.50621094 -55.93914062 155.89132812 -56.5859375 155.2578125 C-72.81193738 138.07517771 -78.30650156 113.62008171 -78.05859375 90.68359375 C-78.05427338 90.00854797 -78.049953 89.3335022 -78.04550171 88.63800049 C-77.85927807 63.78100194 -71.1957368 40.59203368 -53.68359375 22.12109375 C-39.25079185 8.00953068 -19.96918579 0.90108407 0 0 Z M-25.1875 49.8671875 C-36.88209674 64.43414134 -38.07038408 84.22605161 -36.50488281 102.16943359 C-35.1426166 114.14829447 -29.95203995 128.59856379 -20.61328125 136.796875 C-10.17872707 143.95742939 -0.03248921 145.12402128 12.31640625 144.12109375 C21.88265994 142.11604563 29.68410114 135.95477697 35.12890625 127.99609375 C45.4333443 110.48809021 46.36781197 88.5648778 41.56640625 69.18359375 C38.2104977 57.88576639 33.21527397 47.61466716 23.23828125 40.67578125 C21.29040142 39.64049079 19.40101098 38.83819778 17.31640625 38.12109375 C16.6925 37.899375 16.06859375 37.67765625 15.42578125 37.44921875 C-0.1471627 32.76467464 -14.80243892 37.80972697 -25.1875 49.8671875 Z " fill="#FBFDFF" transform="translate(1482.68359375,321.87890625)"/>
<path d="M0 0 C18.55620477 15.39829643 27.73976856 37.53836665 30.59375 61.15234375 C30.88244145 66.05189886 30.928153 70.93263243 30.90625 75.83984375 C30.90301727 76.82771378 30.90301727 76.82771378 30.89971924 77.83554077 C30.76007224 104.4818823 23.86272627 129.97175176 4.66796875 149.3046875 C-7.86433457 161.2789516 -24.21921557 166.51813383 -41.21875 166.46484375 C-42.23517578 166.48095703 -43.25160156 166.49707031 -44.29882812 166.51367188 C-59.19670036 166.52316701 -71.19327663 161.59209931 -82.08203125 151.53125 C-84.67443898 148.87784444 -87.03142137 146.00213811 -89.40625 143.15234375 C-89.73625 169.22234375 -90.06625 195.29234375 -90.40625 222.15234375 C-99.31625 222.15234375 -108.22625 222.15234375 -117.40625 222.15234375 C-117.4740176 192.63097557 -117.52775094 163.10961719 -117.55944599 133.5881877 C-117.56319827 130.10582943 -117.56708122 126.62347132 -117.57104492 123.14111328 C-117.57183185 122.44781528 -117.57261878 121.75451727 -117.57342956 121.04021023 C-117.58649661 109.80271401 -117.61015756 98.56526366 -117.63770839 87.32779469 C-117.66572654 75.80391892 -117.68219396 64.28007549 -117.68851548 52.75616634 C-117.69243659 46.2804844 -117.7016926 39.80490662 -117.72344017 33.32925797 C-117.7437231 27.24069764 -117.75010046 21.1522849 -117.74557304 15.063694 C-117.74640193 12.82307128 -117.75241607 10.58244389 -117.76386642 8.34185028 C-117.77868235 5.29453901 -117.77524364 2.24779296 -117.76701355 -0.79953003 C-117.77575207 -1.69640435 -117.7844906 -2.59327867 -117.79349393 -3.517331 C-117.77539349 -5.97833061 -117.77539349 -5.97833061 -117.40625 -9.84765625 C-113.03385012 -12.7625895 -109.04822939 -12.17736502 -103.90625 -12.16015625 C-102.94332031 -12.17626953 -101.98039063 -12.19238281 -100.98828125 -12.20898438 C-100.06402344 -12.20962891 -99.13976562 -12.21027344 -98.1875 -12.2109375 C-96.9200293 -12.21540894 -96.9200293 -12.21540894 -95.62695312 -12.2199707 C-93.40625 -11.84765625 -93.40625 -11.84765625 -91.6394043 -10.58935547 C-90.1348125 -8.46427967 -89.98631096 -7.2053754 -89.89453125 -4.6171875 C-89.84135742 -3.41352539 -89.84135742 -3.41352539 -89.78710938 -2.18554688 C-89.76455078 -1.35216797 -89.74199219 -0.51878906 -89.71875 0.33984375 C-89.66750977 1.60731445 -89.66750977 1.60731445 -89.61523438 2.90039062 C-89.53283529 4.98391024 -89.46786355 7.06810591 -89.40625 9.15234375 C-88.51486328 8.08306641 -88.51486328 8.08306641 -87.60546875 6.9921875 C-65.24968004 -18.84039573 -26.94313126 -20.78801938 0 0 Z M-76.40625 27.15234375 C-78.71964946 30.3467929 -80.6131127 33.64307505 -82.40625 37.15234375 C-82.78523437 37.87164062 -83.16421875 38.5909375 -83.5546875 39.33203125 C-88.04251085 48.54387918 -89.90636281 58.97282285 -90.40625 69.15234375 C-90.48552734 70.66828125 -90.48552734 70.66828125 -90.56640625 72.21484375 C-91.10673613 92.51245307 -86.84002159 114.00464153 -72.78125 129.40234375 C-63.38299319 138.3297823 -52.71609672 140.58511473 -40.19921875 140.36328125 C-28.91294844 139.73562049 -19.76981243 134.40405374 -12.09375 126.23046875 C2.48811475 108.27317235 4.42438076 84.01898763 2.37548828 61.78369141 C0.19212351 45.43339743 -6.42503483 30.12775238 -19.41796875 19.58203125 C-37.44361991 6.62056107 -61.89403059 11.21954241 -76.40625 27.15234375 Z " fill="#FBFDFF" transform="translate(831.40625,335.84765625)"/>
<path d="M0 0 C1.53333984 -0.00386719 1.53333984 -0.00386719 3.09765625 -0.0078125 C4.16886719 -0.00007813 5.24007813 0.00765625 6.34375 0.015625 C7.41496094 0.00789063 8.48617188 0.00015625 9.58984375 -0.0078125 C10.61207031 -0.00523437 11.63429688 -0.00265625 12.6875 0 C13.62787109 0.00225586 14.56824219 0.00451172 15.53710938 0.00683594 C17.84375 0.265625 17.84375 0.265625 19.84375 2.265625 C20.04177548 5.23191625 20.11289732 8.10497596 20.09771729 11.07250977 C20.10239726 12.45728059 20.10239726 12.45728059 20.10717177 13.87002659 C20.11518812 16.98242526 20.10881401 20.09463092 20.10253906 23.20703125 C20.10524731 25.43065506 20.1088073 27.65427797 20.11315918 29.87789917 C20.12230522 35.93146321 20.11872982 41.98495935 20.11240101 48.03852463 C20.10735245 54.36105284 20.11202926 60.68357508 20.11517334 67.00610352 C20.11904996 78.30653577 20.11281803 89.60693342 20.10265467 100.90735877 C20.09371874 111.16058527 20.09527065 121.4137665 20.10449219 131.66699219 C20.11518685 143.56378208 20.11918372 155.46054444 20.11326766 167.35734081 C20.11014273 173.65857722 20.1097529 179.95978242 20.11634064 186.26101685 C20.12209971 192.18379968 20.11814366 198.10649665 20.10655212 204.02927017 C20.10389781 206.20860781 20.10468367 208.38795262 20.10907745 210.56728745 C20.11450404 213.53120406 20.10773408 216.49484163 20.09771729 219.45874023 C20.10440945 220.76698682 20.10440945 220.76698682 20.11123681 222.10166264 C20.07205002 228.03732498 20.07205002 228.03732498 17.84375 230.265625 C14.21730496 230.71857833 10.55773262 230.58967302 6.90625 230.578125 C5.89111328 230.59423828 4.87597656 230.61035156 3.83007812 230.62695312 C2.36924805 230.62791992 2.36924805 230.62791992 0.87890625 230.62890625 C-0.46095337 230.63337769 -0.46095337 230.63337769 -1.82788086 230.63793945 C-4.15625 230.265625 -4.15625 230.265625 -5.93896484 228.99365234 C-7.38920418 226.93492911 -7.57394659 225.75489578 -7.66796875 223.25390625 C-7.70341797 222.49658203 -7.73886719 221.73925781 -7.77539062 220.95898438 C-7.79794922 220.17330078 -7.82050781 219.38761719 -7.84375 218.578125 C-7.87791016 217.78083984 -7.91207031 216.98355469 -7.94726562 216.16210938 C-8.02963104 214.19710596 -8.09462067 212.23138804 -8.15625 210.265625 C-8.70152344 210.90628906 -9.24679687 211.54695312 -9.80859375 212.20703125 C-20.05223652 223.95657706 -30.89336322 232.24531028 -46.84423828 233.47241211 C-67.3607113 234.16106443 -86.06577947 231.18137893 -101.71875 216.890625 C-119.88619521 199.44185242 -127.56799886 174.52197829 -128.4453125 149.89453125 C-129.00462249 121.98025068 -124.24396375 95.83971429 -105.15625 74.265625 C-104.62644531 73.64171875 -104.09664062 73.0178125 -103.55078125 72.375 C-92.51501362 60.27652882 -75.74164182 54.0017784 -59.68359375 53.0625 C-41.76485631 52.82852301 -27.38044034 56.93726691 -14.15625 69.265625 C-13.09294632 70.46808953 -12.04310232 71.68255042 -11.00488281 72.90673828 C-10.20235077 73.85070969 -10.20235077 73.85070969 -9.38360596 74.81375122 C-8.77606476 75.53242874 -8.77606476 75.53242874 -8.15625 76.265625 C-8.14816315 75.34298859 -8.14007629 74.42035217 -8.13174438 73.46975708 C-8.05390237 64.78773275 -7.96664352 56.10586568 -7.86872292 47.42404366 C-7.81871165 42.96029919 -7.77238224 38.49657894 -7.734375 34.03271484 C-7.69758294 29.72730219 -7.65123999 25.42208991 -7.59818649 21.11684799 C-7.57961009 19.47179544 -7.56451421 17.82669989 -7.55290604 16.1815834 C-7.53609872 13.88272701 -7.50707821 11.58433276 -7.47509766 9.28564453 C-7.46177399 7.9754837 -7.44845032 6.66532288 -7.4347229 5.31546021 C-6.95469063 0.05814673 -4.69638002 0.01126616 0 0 Z M-84.05859375 91.98828125 C-98.98077883 108.18871682 -101.03630205 130.57123381 -100.30859375 151.59472656 C-99.33335851 168.69260086 -93.12984579 186.44798006 -80.50390625 198.44140625 C-69.87889084 206.69744984 -59.1651791 207.98908759 -46.15625 207.265625 C-35.7929076 205.61085585 -26.65806199 199.40851934 -20.15625 191.265625 C-7.23403726 171.35423469 -4.56145046 146.77192226 -8.40625 123.703125 C-11.38088402 110.06938575 -16.64419949 95.97038909 -28.15625 87.265625 C-46.64494949 75.80634497 -68.01658773 76.79505861 -84.05859375 91.98828125 Z " fill="#FAFDFF" transform="translate(1066.15625,268.734375)"/>
<path d="M0 0 C0.87269531 0.43054688 1.74539063 0.86109375 2.64453125 1.3046875 C13.39273581 7.1493333 20.83478146 16.55195995 25 28 C27.46575757 36.76058939 28.43381085 44.93285201 28.37231445 54.01049805 C28.37596512 55.2381337 28.37961578 56.46576935 28.38337708 57.73060608 C28.39002849 61.05238909 28.38347242 64.37359817 28.37004495 67.69532371 C28.35862029 71.18570154 28.36284566 74.67606694 28.36479187 78.16645813 C28.36567011 84.01230726 28.35468282 89.85803935 28.33618164 95.70385742 C28.31491193 102.46321162 28.31152994 109.22239596 28.3177436 115.98177689 C28.3234298 122.50171188 28.31780744 129.02158708 28.30657005 135.54151344 C28.30192527 138.31142088 28.30104953 141.08129174 28.3031559 143.85120201 C28.30538275 147.70514681 28.29095888 151.55892862 28.2746582 155.4128418 C28.27713562 156.56342072 28.27961304 157.71399963 28.28216553 158.89944458 C28.27508072 159.94359024 28.26799591 160.9877359 28.26069641 162.06352234 C28.25761711 163.42918099 28.25761711 163.42918099 28.25447559 164.8224287 C28 167 28 167 26 169 C22.20653509 169.45482767 18.38008871 169.3240335 14.5625 169.3125 C13.49966797 169.32861328 12.43683594 169.34472656 11.34179688 169.36132812 C9.81329102 169.36229492 9.81329102 169.36229492 8.25390625 169.36328125 C7.31877197 169.36626221 6.3836377 169.36924316 5.42016602 169.37231445 C3 169 3 169 1.20361328 167.67333984 C-0.68892969 165.04220607 -0.52971443 162.49976845 -0.6875 159.3125 C-0.75324219 158.13300781 -0.81898438 156.95351563 -0.88671875 155.73828125 C-0.94279297 154.38283203 -0.94279297 154.38283203 -1 153 C-1.43828125 153.49628906 -1.8765625 153.99257813 -2.328125 154.50390625 C-14.1074139 167.12115269 -29.18380099 172.31130533 -46.203125 173.03515625 C-63.74878143 172.87269647 -80.05023247 168.04978631 -93.12109375 156.03515625 C-103.89437487 144.36596818 -107.36249013 130.3602418 -107.2109375 114.88671875 C-106.55209894 102.74700819 -102.07972814 91.99811017 -93.0859375 83.65234375 C-76.28111228 70.34065636 -54.66120864 67.58565819 -34.08203125 64.74609375 C-33.30054718 64.63762115 -32.51906311 64.52914856 -31.71389771 64.41738892 C-27.7803952 63.87346624 -23.84578221 63.34395153 -19.90722656 62.83789062 C-18.43942019 62.64087024 -16.97164535 62.44361471 -15.50390625 62.24609375 C-14.20267822 62.07779053 -12.9014502 61.9094873 -11.56079102 61.73608398 C-7.7308031 60.94435182 -3.84617047 59.84617047 -1 57 C-0.08725523 46.37624941 -1.06269579 36.68656445 -7.75 28.0625 C-14.73674987 20.76134639 -24.50103103 19.01676033 -34.25 18.6875 C-48.0676958 19.01975011 -59.84828298 22.97525174 -69.48046875 33.05859375 C-71.68211785 35.87149761 -73.19951968 38.93126546 -74.6640625 42.1796875 C-76 44 -76 44 -78.29760742 44.69897461 C-81.25387032 45.02827917 -82.81393645 44.67861737 -85.57421875 43.63671875 C-86.40630859 43.32669922 -87.23839844 43.01667969 -88.09570312 42.69726562 C-89.37864258 42.19743164 -89.37864258 42.19743164 -90.6875 41.6875 C-91.55439453 41.36587891 -92.42128906 41.04425781 -93.31445312 40.71289062 C-99.71152491 38.28847509 -99.71152491 38.28847509 -102 36 C-102.20339439 26.6438581 -95.51088311 18.24622861 -89.375 11.75 C-65.86511409 -10.34149159 -28.56133022 -14.26029326 0 0 Z M-11.5 86.75 C-21.03450318 88.73764887 -30.61075444 90.18597852 -40.26953125 91.42871094 C-53.02766717 93.17645318 -66.01446264 96.18910108 -75.5 105.4375 C-79.24200333 111.83008902 -80.06354083 118.87566689 -78.5703125 126.0703125 C-76.12065796 133.7821879 -70.98651829 139.24926101 -63.875 142.9375 C-54.24690731 147.47470023 -40.72533333 147.64741893 -30.5 144.875 C-17.75399199 140.16642316 -9.12887043 132.25935374 -3.2265625 120.125 C-0.06830175 112.0784758 0.25830679 105.07265235 0.125 96.5 C0.11597656 95.39140625 0.10695313 94.2828125 0.09765625 93.140625 C0.07426167 90.42685408 0.04148175 87.71354455 0 85 C-3.95849538 85 -7.6466385 85.92995945 -11.5 86.75 Z " fill="#FBFDFF" transform="translate(653,330)"/>
<path d="M0 0 C0.76473633 -0.0095874 1.52947266 -0.0191748 2.31738281 -0.02905273 C3.06084961 -0.02462158 3.80431641 -0.02019043 4.5703125 -0.015625 C5.23047363 -0.01336914 5.89063477 -0.01111328 6.57080078 -0.00878906 C9.79309526 0.35311305 12.77973606 1.30790214 15.875 2.25 C15.89964928 7.50105442 15.91783568 12.75207545 15.92993164 18.00317383 C15.93497218 19.79094021 15.94180454 21.57870245 15.95043945 23.36645508 C15.9625173 25.93051168 15.96823094 28.49451397 15.97265625 31.05859375 C15.97781754 31.8627623 15.98297882 32.66693085 15.98829651 33.49546814 C15.98849215 35.41401715 15.93701983 37.33245368 15.875 39.25 C14.875 40.25 14.875 40.25 12.28979492 40.28417969 C11.15646729 40.24711914 10.02313965 40.21005859 8.85546875 40.171875 C7.60443359 40.14609375 6.35339844 40.1203125 5.06445312 40.09375 C2.437656 40.03719755 -0.18444308 39.95472521 -2.81054688 39.859375 C-12.79851022 39.69655542 -21.42244796 41.47028399 -29.5625 47.5625 C-37.72924567 56.12762351 -39.4255936 64.60963611 -39.39624023 76.1105957 C-39.40408035 77.71664925 -39.40408035 77.71664925 -39.41207886 79.35514832 C-39.42228933 81.67026116 -39.42809409 83.98539678 -39.42996025 86.30053139 C-39.43362854 89.96048824 -39.45036501 93.6201753 -39.47071838 97.28007507 C-39.52610909 107.68219 -39.55691472 118.08434325 -39.58129883 128.48657227 C-39.59712697 134.85541144 -39.6272863 141.22405582 -39.66606331 147.59279442 C-39.67774564 150.02215707 -39.68364394 152.45155446 -39.68374443 154.88094521 C-39.68393537 158.26629795 -39.70211728 161.65110803 -39.72436523 165.03637695 C-39.71978806 166.04677032 -39.71521088 167.0571637 -39.710495 168.09817505 C-39.72014282 169.0163652 -39.72979065 169.93455536 -39.73973083 170.88056946 C-39.74274783 172.08093322 -39.74274783 172.08093322 -39.74582577 173.30554676 C-39.87095326 173.94721633 -39.99608076 174.5888859 -40.125 175.25 C-43.82494558 177.71663039 -46.68581297 177.55605136 -50.96875 177.55078125 C-51.73425171 177.55506638 -52.49975342 177.5593515 -53.28845215 177.56376648 C-54.90567028 177.56950517 -56.52291423 177.57001342 -58.14013672 177.56567383 C-60.61600653 177.56251149 -63.09068397 177.58598531 -65.56640625 177.61132812 C-67.13801932 177.61360092 -68.70963562 177.61430471 -70.28125 177.61328125 C-71.02193726 177.622491 -71.76262451 177.63170074 -72.52575684 177.64118958 C-77.59299774 177.59550049 -77.59299774 177.59550049 -79.82030678 176.1490097 C-81.78383679 173.29104855 -81.50280947 170.93640615 -81.50595093 167.49353027 C-81.5106309 166.80296335 -81.51531087 166.11239642 -81.52013266 165.40090322 C-81.53212106 163.08152793 -81.52261084 160.7627393 -81.51318359 158.44335938 C-81.5172476 156.78277745 -81.52258852 155.12219822 -81.52911377 153.46162415 C-81.54281354 148.94721434 -81.53747779 144.43300975 -81.52797651 139.91859627 C-81.52039367 135.19942792 -81.52742169 130.48027742 -81.53213501 125.7611084 C-81.53759658 117.83533567 -81.53039043 109.90964673 -81.51611328 101.98388672 C-81.49978599 92.81399047 -81.50507422 83.64429431 -81.5215925 74.4744029 C-81.53519594 66.60852578 -81.53713262 58.74270898 -81.52927649 50.8768239 C-81.52459368 46.17571768 -81.52399177 41.47470557 -81.53388596 36.77360535 C-81.54253676 32.35440366 -81.53656839 27.93546054 -81.51920319 23.51628685 C-81.51522823 21.89209104 -81.51638958 20.26787355 -81.52299118 18.64368629 C-81.53115726 16.4309846 -81.52094604 14.21911783 -81.50595093 12.00646973 C-81.50481985 10.76686745 -81.50368877 9.52726517 -81.50252342 8.25009918 C-81.125 5.25 -81.125 5.25 -79.81456947 3.35198212 C-76.96474095 1.49324821 -73.79143727 1.82375572 -70.5 1.8515625 C-69.3850415 1.84725723 -69.3850415 1.84725723 -68.24755859 1.84286499 C-66.6774011 1.84082524 -65.10721814 1.846349 -63.53710938 1.85888672 C-61.13353668 1.87494297 -58.73164539 1.85903648 -56.328125 1.83984375 C-54.80207962 1.8418262 -53.27603529 1.84566991 -51.75 1.8515625 C-51.03118652 1.84548981 -50.31237305 1.83941711 -49.57177734 1.8331604 C-46.65511428 1.87427778 -44.62132676 1.90733825 -42.18041992 3.5925293 C-40.56643522 6.12719091 -40.59712203 8.46853022 -40.4375 11.4375 C-40.37175781 12.52417969 -40.30601563 13.61085938 -40.23828125 14.73046875 C-40.18220703 15.97763672 -40.18220703 15.97763672 -40.125 17.25 C-39.70992187 16.75371094 -39.29484375 16.25742187 -38.8671875 15.74609375 C-28.42425746 4.23265415 -15.07739546 0.16836931 0 0 Z " fill="#FBFCFF" transform="translate(1395.125,321.75)"/>
<path d="M0 0 C0.969375 -0.00386719 1.93875 -0.00773437 2.9375 -0.01171875 C3.948125 -0.00011719 4.95875 0.01148438 6 0.0234375 C7.010625 0.01183594 8.02125 0.00023437 9.0625 -0.01171875 C10.031875 -0.00785156 11.00125 -0.00398438 12 0 C12.886875 0.00338379 13.77375 0.00676758 14.6875 0.01025391 C17.58788415 0.4971216 18.2763302 1.02650402 20 3.3984375 C20.37752342 6.39853668 20.37752342 6.39853668 20.38095093 10.15490723 C20.3856309 10.84547415 20.39031087 11.53604108 20.39513266 12.24753428 C20.40712106 14.56690957 20.39761084 16.8856982 20.38818359 19.20507812 C20.3922476 20.86566005 20.39758852 22.52623928 20.40411377 24.18681335 C20.41781354 28.70122316 20.41247779 33.21542775 20.40297651 37.72984123 C20.39539367 42.44900958 20.40242169 47.16816008 20.40713501 51.8873291 C20.41259658 59.81310183 20.40539043 67.73879077 20.39111328 75.66455078 C20.37478599 84.83444703 20.38007422 94.00414319 20.3965925 103.1740346 C20.41019594 111.03991172 20.41213262 118.90572852 20.40427649 126.7716136 C20.39959368 131.47271982 20.39899177 136.17373193 20.40888596 140.87483215 C20.41753676 145.29403384 20.41156839 149.71297696 20.39420319 154.13215065 C20.39022823 155.75634646 20.39138958 157.38056395 20.39799118 159.00475121 C20.40615726 161.2174529 20.39594604 163.42931967 20.38095093 165.64196777 C20.37981985 166.88157005 20.37868877 168.12117233 20.37752342 169.39833832 C20 172.3984375 20 172.3984375 18.62072182 174.2974472 C16.35759319 175.83483791 14.72055181 175.77086305 12 175.76171875 C11.030625 175.76107422 10.06125 175.76042969 9.0625 175.75976562 C7.5465625 175.7355957 7.5465625 175.7355957 6 175.7109375 C4.4840625 175.71577148 4.4840625 175.71577148 2.9375 175.72070312 C-4.59928571 175.66558036 -4.59928571 175.66558036 -8 173.3984375 C-8.37752342 170.50576878 -8.37752342 170.50576878 -8.38095093 166.72425842 C-8.3856309 166.03046237 -8.39031087 165.33666632 -8.39513266 164.62184614 C-8.40714593 162.28554759 -8.39760117 159.9498288 -8.38818359 157.61352539 C-8.39224654 155.94323889 -8.39758685 154.27295508 -8.40411377 152.60267639 C-8.41782728 148.05721718 -8.41247189 143.51196153 -8.40297651 138.96649861 C-8.39539948 134.21662791 -8.40242018 129.46677505 -8.40713501 124.71690369 C-8.41259882 116.73807638 -8.40538514 108.75933227 -8.39111328 100.78051758 C-8.37479115 91.54872657 -8.38006957 82.31713436 -8.3965925 73.08534819 C-8.41019625 65.16853635 -8.4121323 57.25178444 -8.40427649 49.33496469 C-8.39959313 44.60254465 -8.39899316 39.87021811 -8.40888596 35.13780403 C-8.41753702 30.68824754 -8.4115679 26.23894785 -8.39420319 21.78941917 C-8.39022812 20.15393628 -8.39138975 18.51843186 -8.39799118 16.88295746 C-8.40615699 14.65487756 -8.39594627 12.42762689 -8.38095093 10.19960022 C-8.37981985 8.95132478 -8.37868877 7.70304934 -8.37752342 6.41694736 C-8 3.3984375 -8 3.3984375 -6.62072182 1.4976263 C-4.36160999 -0.03452462 -2.71515802 0.01035943 0 0 Z " fill="#FBFDFF" transform="translate(894,323.6015625)"/>
<path d="M0 0 C4.87334686 2.62736961 7.76189885 6.11272855 10.109375 11.03125 C11.32262901 16.76663259 10.80502751 21.43876439 7.984375 26.59375 C4.20865765 31.23248846 1.78222183 33.90001612 -4.203125 35.28125 C-10.55766629 35.89620561 -14.92022679 34.94647274 -20.203125 31.28125 C-23.92722848 27.92484282 -26.23503868 24.21849021 -27.203125 19.28125 C-27.29051917 13.21827954 -26.17476492 9.02515324 -22.203125 4.28125 C-16.0227469 -1.29616439 -8.02564521 -2.6182956 0 0 Z " fill="#FBFDFF" transform="translate(908.203125,269.71875)"/>
</svg>
